<svg width="16" height="16" viewBox="0 0 16 16" fill="none" xmlns="http://www.w3.org/2000/svg">
<g clip-path="url(#clip0_884_227)">
<path d="M8.00018 15.4089C12.092 15.4089 15.409 12.0918 15.409 7.99999C15.409 3.90819 12.092 0.591125 8.00018 0.591125C3.90837 0.591125 0.591309 3.90819 0.591309 7.99999C0.591309 12.0918 3.90837 15.4089 8.00018 15.4089Z" stroke="#242424" stroke-width="1.18227" stroke-linecap="round" stroke-linejoin="round"/>
<path d="M8.00018 15.4089C12.092 15.4089 15.409 12.0918 15.409 7.99999C15.409 3.90819 12.092 0.591125 8.00018 0.591125C3.90837 0.591125 0.591309 3.90819 0.591309 7.99999C0.591309 12.0918 3.90837 15.4089 8.00018 15.4089Z" stroke="#242424" stroke-width="1.2" stroke-linecap="round" stroke-linejoin="round"/>
<path d="M7.99999 5.12314C8.44399 5.12314 8.80393 4.7632 8.80393 4.3192C8.80393 3.8752 8.44399 3.51526 7.99999 3.51526C7.55598 3.51526 7.19604 3.8752 7.19604 4.3192C7.19604 4.7632 7.55598 5.12314 7.99999 5.12314Z" fill="#242424"/>
<path d="M8 6.46301V11.9645" stroke="#242424" stroke-width="1.2" stroke-linecap="round" stroke-linejoin="round"/>
</g>
<defs>
<clipPath id="clip0_884_227">
<rect width="16" height="16" fill="white"/>
</clipPath>
</defs>
</svg>
