<svg width="26" height="19" viewBox="0 0 26 19" fill="none" xmlns="http://www.w3.org/2000/svg">
<path d="M9.3125 8H16.3297" stroke="#616161" stroke-width="1.3923" stroke-miterlimit="10" stroke-linecap="round"/>
<path d="M9.3125 11.9404H16.3297" stroke="#616161" stroke-width="1.3923" stroke-miterlimit="10" stroke-linecap="round"/>
<path d="M4.00989 18.3038H21.163C23.0009 18.3038 24.4767 16.814 24.4767 14.9901V6.00977" stroke="#616161" stroke-width="1.3923" stroke-miterlimit="10" stroke-linecap="round"/>
<path d="M24.5602 2.86259L19.9099 7.51287C19.6732 7.74956 19.8403 8.13941 20.1745 8.13941H25.1868V3.12712C25.1868 2.79297 24.7969 2.63982 24.5602 2.86259Z" fill="#616161"/>
<path d="M21.163 1H4.00983C2.18591 1 0.696152 2.48976 0.696152 4.31368V13.2801" stroke="#616161" stroke-width="1.3923" stroke-miterlimit="10" stroke-linecap="round"/>
<path d="M0.626536 16.1372L5.27682 11.4869C5.51351 11.2502 5.34644 10.8604 5.01228 10.8604H0V15.8726C0 16.2068 0.389844 16.3599 0.626536 16.1372Z" fill="#616161"/>
</svg>
